<mxfile host="app.diagrams.net" modified="2023-05-18T14:08:49.659Z" agent="Mozilla/5.0 (Macintosh; Intel Mac OS X 10.15; rv:109.0) Gecko/20100101 Firefox/113.0" version="21.3.2" etag="cNnVU6hd5HJs2B0eqpD-" type="github">
  <diagram name="第 1 页" id="w5rJ-jh6u8kljqgE2tSI">
    <mxGraphModel>
      <root>
        <mxCell id="0" />
        <mxCell id="1" parent="0" />
      </root>
    </mxGraphModel>
  </diagram>
</mxfile>
